<svg xmlns="http://www.w3.org/2000/svg" viewBox="0 0 128 108" fill="none">
  <defs>
    <clipPath id="cc">
      <path d="M32 15 L118 7 L118 91 L28 95 Z"/>
    </clipPath>
    <clipPath id="rc">
      <circle cx="26" cy="90" r="13"/>
    </clipPath>
  </defs>

  <!-- Carpet body: black base -->
  <path d="M29 12 L121 4 L121 94 L25 98 Z" fill="#1C1200"/>

  <!-- Yellow surface -->
  <rect x="28" y="3" width="95" height="96" fill="#F2BC4A" clip-path="url(#cc)"/>

  <!-- Orange horizontal stripes -->
  <rect x="28" y="14" width="95" height="12" fill="#EC7A08" clip-path="url(#cc)"/>
  <rect x="28" y="39" width="95" height="12" fill="#EC7A08" clip-path="url(#cc)"/>
  <rect x="28" y="64" width="95" height="12" fill="#EC7A08" clip-path="url(#cc)"/>

  <!-- Orange vertical stripes -->
  <rect x="54" y="3" width="12" height="96" fill="#EC7A08" clip-path="url(#cc)"/>
  <rect x="79" y="3" width="12" height="96" fill="#EC7A08" clip-path="url(#cc)"/>
  <rect x="104" y="3" width="12" height="96" fill="#EC7A08" clip-path="url(#cc)"/>

  <!-- Grid lines horizontal -->
  <line x1="27" y1="26" x2="121" y2="26" stroke="#1C1200" stroke-width="2.5" clip-path="url(#cc)"/>
  <line x1="27" y1="39" x2="121" y2="39" stroke="#1C1200" stroke-width="2.5" clip-path="url(#cc)"/>
  <line x1="27" y1="51" x2="121" y2="51" stroke="#1C1200" stroke-width="2.5" clip-path="url(#cc)"/>
  <line x1="27" y1="64" x2="121" y2="64" stroke="#1C1200" stroke-width="2.5" clip-path="url(#cc)"/>
  <line x1="27" y1="76" x2="121" y2="76" stroke="#1C1200" stroke-width="2.5" clip-path="url(#cc)"/>

  <!-- Grid lines vertical -->
  <line x1="54" y1="3" x2="54" y2="98" stroke="#1C1200" stroke-width="2.5" clip-path="url(#cc)"/>
  <line x1="66" y1="3" x2="66" y2="98" stroke="#1C1200" stroke-width="2.5" clip-path="url(#cc)"/>
  <line x1="79" y1="3" x2="79" y2="98" stroke="#1C1200" stroke-width="2.5" clip-path="url(#cc)"/>
  <line x1="91" y1="3" x2="91" y2="98" stroke="#1C1200" stroke-width="2.5" clip-path="url(#cc)"/>
  <line x1="104" y1="3" x2="104" y2="98" stroke="#1C1200" stroke-width="2.5" clip-path="url(#cc)"/>
  <line x1="116" y1="3" x2="116" y2="98" stroke="#1C1200" stroke-width="2.5" clip-path="url(#cc)"/>

  <!-- Carpet outer stroke -->
  <path d="M29 12 L121 4 L121 94 L25 98 Z" stroke="#1C1200" stroke-width="5" stroke-linejoin="round"/>

  <!-- Roll cylinder arc (left side) -->
  <path d="M29 12 Q7 34 7 53 Q7 72 25 96" stroke="#1C1200" stroke-width="5" stroke-linecap="round" fill="none"/>
  <!-- Roll body fill (light grey) -->
  <path d="M29 12 Q14 33 13 53 Q13 72 25 96 Q16 73 16 53 Q16 34 29 12 Z" fill="#EDE8E0"/>
  <!-- Roll shine -->
  <path d="M24 18 Q14 37 14 53 Q14 69 22 87" stroke="rgba(255,255,255,0.7)" stroke-width="5" stroke-linecap="round" fill="none"/>

  <!-- Roll top rounded cap -->
  <path d="M19 17 Q29 8 39 14 L32 15 Q26 11 19 17 Z" fill="#EDE8E0" stroke="#1C1200" stroke-width="3" stroke-linejoin="round"/>

  <!-- Roll bottom circle (cross-section end) -->
  <circle cx="26" cy="90" r="16" fill="#1C1200"/>
  <circle cx="26" cy="90" r="13" fill="#F2BC4A"/>
  <rect x="13" y="87" width="26" height="6" fill="#EC7A08" clip-path="url(#rc)"/>
  <rect x="13" y="81" width="6" height="18" fill="#EC7A08" clip-path="url(#rc)"/>
  <rect x="33" y="81" width="6" height="18" fill="#EC7A08" clip-path="url(#rc)"/>
  <line x1="13" y1="87" x2="39" y2="87" stroke="#1C1200" stroke-width="1.5" clip-path="url(#rc)"/>
  <line x1="13" y1="93" x2="39" y2="93" stroke="#1C1200" stroke-width="1.5" clip-path="url(#rc)"/>
  <line x1="19" y1="77" x2="19" y2="103" stroke="#1C1200" stroke-width="1.5" clip-path="url(#rc)"/>
  <line x1="26" y1="77" x2="26" y2="103" stroke="#1C1200" stroke-width="1.5" clip-path="url(#rc)"/>
  <line x1="33" y1="77" x2="33" y2="103" stroke="#1C1200" stroke-width="1.5" clip-path="url(#rc)"/>
  <!-- Roll core white highlight inside circle -->
  <path d="M19 82 Q26 77 33 82 Q26 79 19 82 Z" fill="#EDE8E0"/>
</svg>
